HIERARCHY
ROOT Hips
{
  OFFSET 5.80788e-005 67.184 3.4734
  CHANNELS 6 Xposition Yposition Zposition Zrotation Xrotation Yrotation
  JOINT Chest
  {
    OFFSET 0 8.7983 -4.7612
    CHANNELS 6 Xposition Yposition Zposition Zrotation Xrotation Yrotation
    JOINT Chest2
    {
      OFFSET 0 8.0291 0.4195
      CHANNELS 6 Xposition Yposition Zposition Zrotation Xrotation Yrotation
      JOINT Chest3
      {
        OFFSET 0 9.9351 -2.2114
        CHANNELS 6 Xposition Yposition Zposition Zrotation Xrotation Yrotation
        JOINT Neck
        {
          OFFSET 0 22.3885 -0.4656
          CHANNELS 6 Xposition Yposition Zposition Zrotation Xrotation Yrotation
          JOINT Head
          {
            OFFSET -0.0001 12.643 3.4389
            CHANNELS 6 Xposition Yposition Zposition Zrotation Xrotation Yrotation
            End Site
            {
              OFFSET 0.0001 17.6655 0.5274
            }
          }
        }
        JOINT LeftCollar
        {
          OFFSET 2.2603 21.606 7.4023
          CHANNELS 6 Xposition Yposition Zposition Zrotation Xrotation Yrotation
          JOINT LeftShoulder
          {
            OFFSET 13.5163 -1.1332 -5.0146
            CHANNELS 6 Xposition Yposition Zposition Zrotation Xrotation Yrotation
            JOINT LeftElbow
            {
              OFFSET -0.0995 -28.05 -0.2431
              CHANNELS 6 Xposition Yposition Zposition Zrotation Xrotation Yrotation
              JOINT LeftWrist
              {
                OFFSET 0.0679 -23.3996 -0.1402
                CHANNELS 6 Xposition Yposition Zposition Zrotation Xrotation Yrotation
                JOINT LeftFinger1
                {
                  OFFSET 0.7932 -9.069 2.5189
                  CHANNELS 6 Xposition Yposition Zposition Zrotation Xrotation Yrotation
                  JOINT LeftFinger11
                  {
                    OFFSET -0.8272 -3.3923 0.5977
                    CHANNELS 6 Xposition Yposition Zposition Zrotation Xrotation Yrotation
                    JOINT LeftFinger12
                    {
                      OFFSET -0.5649 -2.3158 0.4082
                      CHANNELS 6 Xposition Yposition Zposition Zrotation Xrotation Yrotation
                      End Site
                      {
                        OFFSET -0.4919 -1.6479 0.2673
                      }
                    }
                  }
                }
                JOINT LeftFinger2
                {
                  OFFSET 0.9159 -9.2044 0.2193
                  CHANNELS 6 Xposition Yposition Zposition Zrotation Xrotation Yrotation
                  JOINT LeftFinger21
                  {
                    OFFSET 0.0117 -4.1944 -0.0248
                    CHANNELS 6 Xposition Yposition Zposition Zrotation Xrotation Yrotation
                    JOINT LeftFinger22
                    {
                      OFFSET 0.0071 -2.3249 -0.0142
                      CHANNELS 6 Xposition Yposition Zposition Zrotation Xrotation Yrotation
                      End Site
                      {
                        OFFSET -0.1475 -2.0882 0.0028
                      }
                    }
                  }
                }
                JOINT LeftFinger3
                {
                  OFFSET 0.6113 -8.7231 -2.0637
                  CHANNELS 6 Xposition Yposition Zposition Zrotation Xrotation Yrotation
                  JOINT LeftFinger31
                  {
                    OFFSET -0.1927 -3.8059 -0.2383
                    CHANNELS 6 Xposition Yposition Zposition Zrotation Xrotation Yrotation
                    JOINT LeftFinger32
                    {
                      OFFSET -0.1091 -2.1688 -0.1362
                      CHANNELS 6 Xposition Yposition Zposition Zrotation Xrotation Yrotation
                      End Site
                      {
                        OFFSET -0.2358 -1.9176 -0.0906
                      }
                    }
                  }
                }
                JOINT LeftFinger4
                {
                  OFFSET -0.6151 -8.0947 -3.5641
                  CHANNELS 6 Xposition Yposition Zposition Zrotation Xrotation Yrotation
                  JOINT LeftFinger41
                  {
                    OFFSET -0.4882 -2.341 -0.6462
                    CHANNELS 6 Xposition Yposition Zposition Zrotation Xrotation Yrotation
                    JOINT LeftFinger42
                    {
                      OFFSET -0.3575 -1.7167 -0.4742
                      CHANNELS 6 Xposition Yposition Zposition Zrotation Xrotation Yrotation
                      End Site
                      {
                        OFFSET -0.4187 -1.5237 -0.3496
                      }
                    }
                  }
                }
                JOINT LeftFinger0
                {
                  OFFSET -1.42 -1.8761 1.4223
                  CHANNELS 6 Xposition Yposition Zposition Zrotation Xrotation Yrotation
                  JOINT LeftFinger01
                  {
                    OFFSET -1.1471 -3.4929 2.6334
                    CHANNELS 6 Xposition Yposition Zposition Zrotation Xrotation Yrotation
                    JOINT LeftFinger02
                    {
                      OFFSET -0.823 -2.3 1.6571
                      CHANNELS 6 Xposition Yposition Zposition Zrotation Xrotation Yrotation
                      End Site
                      {
                        OFFSET -0.5822 -1.6914 1.1582
                      }
                    }
                  }
                }
              }
            }
          }
        }
        JOINT RightCollar
        {
          OFFSET -2.2603 21.606 7.4023
          CHANNELS 6 Xposition Yposition Zposition Zrotation Xrotation Yrotation
          JOINT RightShoulder
          {
            OFFSET -13.5187 -1.1334 -5.0155
            CHANNELS 6 Xposition Yposition Zposition Zrotation Xrotation Yrotation
            JOINT RightElbow
            {
              OFFSET 0.0994 -28.0499 -0.2431
              CHANNELS 6 Xposition Yposition Zposition Zrotation Xrotation Yrotation
              JOINT RightWrist
              {
                OFFSET -0.0679 -23.3996 -0.1402
                CHANNELS 6 Xposition Yposition Zposition Zrotation Xrotation Yrotation
                JOINT RightFinger1
                {
                  OFFSET -0.7932 -9.0691 2.5189
                  CHANNELS 6 Xposition Yposition Zposition Zrotation Xrotation Yrotation
                  JOINT RightFinger11
                  {
                    OFFSET 0.8272 -3.3923 0.5977
                    CHANNELS 6 Xposition Yposition Zposition Zrotation Xrotation Yrotation
                    JOINT RightFinger12
                    {
                      OFFSET 0.565 -2.3158 0.4082
                      CHANNELS 6 Xposition Yposition Zposition Zrotation Xrotation Yrotation
                      End Site
                      {
                        OFFSET 0.4919 -1.6479 0.2673
                      }
                    }
                  }
                }
                JOINT RightFinger2
                {
                  OFFSET -0.916 -9.2044 0.2193
                  CHANNELS 6 Xposition Yposition Zposition Zrotation Xrotation Yrotation
                  JOINT RightFinger21
                  {
                    OFFSET -0.0117 -4.1944 -0.0248
                    CHANNELS 6 Xposition Yposition Zposition Zrotation Xrotation Yrotation
                    JOINT RightFinger22
                    {
                      OFFSET -0.0071 -2.3249 -0.0142
                      CHANNELS 6 Xposition Yposition Zposition Zrotation Xrotation Yrotation
                      End Site
                      {
                        OFFSET 0.1475 -2.0882 0.0028
                      }
                    }
                  }
                }
                JOINT RightFinger3
                {
                  OFFSET -0.6113 -8.7231 -2.0637
                  CHANNELS 6 Xposition Yposition Zposition Zrotation Xrotation Yrotation
                  JOINT RightFinger31
                  {
                    OFFSET 0.1927 -3.8059 -0.2383
                    CHANNELS 6 Xposition Yposition Zposition Zrotation Xrotation Yrotation
                    JOINT RightFinger32
                    {
                      OFFSET 0.1091 -2.1688 -0.1362
                      CHANNELS 6 Xposition Yposition Zposition Zrotation Xrotation Yrotation
                      End Site
                      {
                        OFFSET 0.2358 -1.9176 -0.0906
                      }
                    }
                  }
                }
                JOINT RightFinger4
                {
                  OFFSET 0.6151 -8.0947 -3.564
                  CHANNELS 6 Xposition Yposition Zposition Zrotation Xrotation Yrotation
                  JOINT RightFinger41
                  {
                    OFFSET 0.4882 -2.341 -0.6462
                    CHANNELS 6 Xposition Yposition Zposition Zrotation Xrotation Yrotation
                    JOINT RightFinger42
                    {
                      OFFSET 0.3574 -1.7166 -0.4742
                      CHANNELS 6 Xposition Yposition Zposition Zrotation Xrotation Yrotation
                      End Site
                      {
                        OFFSET 0.4187 -1.5237 -0.3496
                      }
                    }
                  }
                }
                JOINT RightFinger0
                {
                  OFFSET 1.4199 -1.8761 1.4221
                  CHANNELS 6 Xposition Yposition Zposition Zrotation Xrotation Yrotation
                  JOINT RightFinger01
                  {
                    OFFSET 1.1472 -3.4929 2.6336
                    CHANNELS 6 Xposition Yposition Zposition Zrotation Xrotation Yrotation
                    JOINT RightFinger02
                    {
                      OFFSET 0.8229 -2.3 1.6571
                      CHANNELS 6 Xposition Yposition Zposition Zrotation Xrotation Yrotation
                      End Site
                      {
                        OFFSET 0.5822 -1.6914 1.1582
                      }
                    }
                  }
                }
              }
            }
          }
        }
      }
    }
  }
  JOINT RightHip
  {
    OFFSET -9.412 3.9771 -0.7758
    CHANNELS 6 Xposition Yposition Zposition Zrotation Xrotation Yrotation
    JOINT RightKnee
    {
      OFFSET -0.7531 -40.938 0
      CHANNELS 6 Xposition Yposition Zposition Zrotation Xrotation Yrotation
      JOINT RightAnkle
      {
        OFFSET 0 -40.1986 0
        CHANNELS 6 Xposition Yposition Zposition Zrotation Xrotation Yrotation
        JOINT RightToe
        {
          OFFSET 0 -4.4182 9.239
          CHANNELS 6 Xposition Yposition Zposition Zrotation Xrotation Yrotation
          End Site
          {
            OFFSET 0 0 6.1981
          }
        }
      }
    }
  }
  JOINT LeftHip
  {
    OFFSET 9.4119 3.9773 -0.7758
    CHANNELS 6 Xposition Yposition Zposition Zrotation Xrotation Yrotation
    JOINT LeftKnee
    {
      OFFSET 0.7532 -40.9383 0
      CHANNELS 6 Xposition Yposition Zposition Zrotation Xrotation Yrotation
      JOINT LeftAnkle
      {
        OFFSET 0 -40.1986 0
        CHANNELS 6 Xposition Yposition Zposition Zrotation Xrotation Yrotation
        JOINT LeftToe
        {
          OFFSET 0 -4.4182 9.239
          CHANNELS 6 Xposition Yposition Zposition Zrotation Xrotation Yrotation
          End Site
          {
            OFFSET 0 0 6.1981
          }
        }
      }
    }
  }
}
MOTION
Frames:	4
Frame Time:	0.0333333
-0.000323843 22.4586 -65.2215 -9.12012e-007 70.9928 1.02255e-006 0 8.7983 -4.7612 -3.49327 5.21401 0.218796 0 8.0291 0.4195 -7.05053 10.4047 0.762489 0 9.9351 -2.2114 -7.05057 10.4048 0.762494 0 22.3885 -0.4656 -10.9116 -45.962 -7.70427 -0.0001 12.643 3.4389 -17.7488 -5.75561 -2.98124 2.2603 21.606 7.4023 3.54757 -34.3358 -15.0176 13.5163 -1.1332 -5.0146 72.098 -62.8479 72.7455 -0.0995 -28.05 -0.2431 -104.728 -68.4104 -157.935 0.0679 -23.3996 -0.1402 -31.5396 3.91076 53.1904 0.7932 -9.069 2.5189 -3.18055e-015 7.95139e-016 1.78906e-015 -0.8272 -3.3923 0.5977 -3.18055e-015 -7.95139e-016 -2.18663e-015 -0.5649 -2.3158 0.4082 -2.48282e-032 -7.95139e-016 -1.78906e-015 0.9159 -9.2044 0.2193 -3.18055e-015 7.95139e-016 1.78906e-015 0.0117 -4.1944 -0.0248 -0.0128038 0.00232409 8.86139e-005 0.0071 -2.3249 -0.0142 1.76556e-031 -3.18055e-015 3.18055e-015 0.6113 -8.7231 -2.0637 -3.18055e-015 7.95139e-016 1.78906e-015 -0.1927 -3.8059 -0.2383 -0.0160384 0.00299803 0.000863838 -0.1091 -2.1688 -0.1362 3.18055e-015 1.59028e-015 3.77691e-015 -0.6151 -8.0947 -3.5641 -3.18055e-015 7.95139e-016 1.78906e-015 -0.4882 -2.341 -0.6462 -0.012612 0.00313309 0.00283132 -0.3575 -1.7167 -0.4742 6.36111e-015 0 -1.39149e-015 -1.42 -1.8761 1.4223 -3.18055e-015 7.95139e-016 1.78906e-015 -1.1471 -3.4929 2.6334 -3.18055e-015 -7.95139e-016 -2.18663e-015 -0.823 -2.3 1.6571 -2.48282e-032 -7.95139e-016 -1.78906e-015 -2.2603 21.606 7.4023 -2.27833 -4.51607 29.0829 -13.5187 -1.1334 -5.0155 -83.0437 -66.6187 -87.5383 0.0994 -28.0499 -0.2431 -161.623 -66.847 -110.054 -0.0679 -23.3996 -0.1402 14.003 23.3954 -30.6859 -0.7932 -9.0691 2.5189 7.95139e-016 3.18055e-015 5.26779e-015 0.8272 -3.3923 0.5977 -3.97569e-016 3.18055e-015 -1.04362e-015 0.565 -2.3158 0.4082 -3.97569e-016 3.18055e-015 -8.94531e-016 -0.916001 -9.2044 0.2193 7.95139e-016 3.18055e-015 5.26779e-015 -0.0117 -4.1944 -0.0248 0.0129545 0.00230303 -8.64567e-005 -0.0071 -2.3249 -0.0142 5.81243e-006 1.26175e-005 -4.38062e-006 -0.6113 -8.7231 -2.0637 7.95139e-016 3.18055e-015 5.26779e-015 0.1927 -3.8059 -0.2383 0.0163324 0.00300963 -0.000867358 0.1091 -2.1688 -0.1362 7.95139e-016 6.36111e-015 -3.926e-015 0.6151 -8.0947 -3.564 7.95139e-016 3.18055e-015 5.26779e-015 0.4882 -2.341 -0.6462 0.0145695 0.00366969 -0.00325901 0.3574 -1.7166 -0.4742 3.97569e-016 0 5.46658e-016 1.4199 -1.8761 1.4221 7.95139e-016 3.18055e-015 5.26779e-015 1.1472 -3.4929 2.6336 -3.97569e-016 3.18055e-015 -1.04362e-015 0.8229 -2.3 1.6571 -3.97569e-016 3.18055e-015 -8.94531e-016 -9.412 3.9771 -0.7758 -88.5078 -59.8254 -76.6478 -0.7531 -40.938 0 155.753 58.2179 -165.068 -3.55271e-015 -40.1986 7.10543e-015 -6.9759 26.2305 -6.60185 -8.88179e-016 -4.4182 9.239 2.01279e-006 6.2036e-006 -1.39177e-005 9.4119 3.9773 -0.7758 88.5039 -59.8659 76.6293 0.7532 -40.9383 -7.10543e-015 -155.694 58.2242 165.032 0 -40.1986 0 7.02516 25.6501 6.53892 -1.77636e-015 -4.4182 9.239 3.72809e-007 2.11846e-006 -2.90213e-006 
-0.000322747 22.4806 -65.1752 -1.13879e-006 70.9928 1.70887e-006 0 8.7983 -4.7612 -3.49385 5.24823 0.222162 4.44089e-016 8.0291 0.4195 -7.05275 10.4729 0.77153 0 9.9351 -2.2114 -7.05278 10.473 0.771535 0 22.3885 -0.4656 -10.9298 -46.0529 -7.72956 -0.0001 12.643 3.4389 -17.7442 -5.60465 -2.93272 2.2603 21.606 7.4023 3.54415 -34.4106 -14.9 13.5163 -1.1332 -5.0146 72.1752 -62.9324 72.6833 -0.0995 -28.05 -0.2431 -105.442 -68.3074 -158.588 0.0679 -23.3996 -0.1402 -31.65 4.02819 53.3176 0.7932 -9.069 2.5189 -1.01379e-006 -1.43947e-006 4.77511e-006 -0.8272 -3.3923 0.5977 3.31043e-032 -1.59028e-015 1.19271e-015 -0.5649 -2.3158 0.4082 -8.616e-006 8.4847e-006 -3.63741e-006 0.9159 -9.2044 0.2193 -1.01379e-006 -1.43947e-006 4.77511e-006 0.0117 -4.1944 -0.0248 -0.0128328 0.00233239 8.82348e-005 0.0071 -2.3249 -0.0142 -3.14761e-006 2.11446e-005 -3.06221e-007 0.6113 -8.7231 -2.0637 -1.01379e-006 -1.43947e-006 4.77511e-006 -0.1927 -3.8059 -0.2383 -0.0160759 0.00300837 0.000861426 -0.1091 -2.1688 -0.1362 -5.32603e-006 5.52572e-007 -1.12736e-006 -0.6151 -8.0947 -3.5641 -1.01379e-006 -1.43947e-006 4.77511e-006 -0.4882 -2.341 -0.6462 -0.0126035 0.00313368 0.00282432 -0.3575 -1.7167 -0.4742 -4.98755e-006 9.73992e-007 -2.71889e-006 -1.42 -1.8761 1.4223 -1.01379e-006 -1.43947e-006 4.77511e-006 -1.1471 -3.4929 2.6334 3.31043e-032 -1.59028e-015 1.19271e-015 -0.823 -2.3 1.6571 -8.616e-006 8.4847e-006 -3.63741e-006 -2.2603 21.606 7.4023 -2.29023 -4.62032 29.0396 -13.5187 -1.1334 -5.0155 -83.0274 -66.5991 -87.5554 0.0994 -28.0499 -0.2431 -161.491 -66.9361 -109.934 -0.0679 -23.3996 -0.1402 13.8942 23.26 -30.6913 -0.7932 -9.0691 2.5189 2.25018e-006 4.50342e-006 -8.34381e-006 0.8272 -3.3923 0.5977 5.831e-006 -2.147e-007 -1.71179e-006 0.565 -2.3158 0.4082 5.16436e-006 1.78221e-005 -3.8661e-006 -0.916 -9.2044 0.2193 2.25018e-006 4.50342e-006 -8.34381e-006 -0.0117 -4.1944 -0.0248 0.0129527 0.0023225 -9.14243e-005 -0.0071 -2.3249 -0.0142 1.08085e-006 7.30517e-006 -3.71098e-007 -0.6113 -8.7231 -2.0637 2.25018e-006 4.50342e-006 -8.34381e-006 0.1927 -3.8059 -0.2383 0.0163415 0.00303404 -0.000874269 0.1091 -2.1688 -0.1362 5.942e-006 -8.16404e-007 -6.64382e-006 0.6151 -8.0947 -3.564 2.25018e-006 4.50342e-006 -8.34381e-006 0.4882 -2.341 -0.6462 0.0145935 0.00368569 -0.00326373 0.3574 -1.7166 -0.4742 5.81213e-006 -1.60506e-006 -4.38043e-006 1.4199 -1.8761 1.4221 2.25018e-006 4.50342e-006 -8.34381e-006 1.1472 -3.4929 2.6336 5.831e-006 -2.147e-007 -1.71179e-006 0.8229 -2.3 1.6571 5.16436e-006 1.78221e-005 -3.8661e-006 -9.412 3.9771 -0.7758 -88.3569 -59.8318 -76.5037 -0.7531 -40.938 0 155.671 58.2803 -164.994 -3.55271e-015 -40.1986 0 -6.97823 26.233 -6.59769 1.77636e-015 -4.4182 9.239 -4.04386e-007 5.00175e-007 2.896e-006 9.4119 3.9773 -0.7758 88.3523 -59.8725 76.4844 0.7532 -40.9383 0 -155.61 58.2871 164.958 0 -40.1986 7.10543e-015 7.02751 25.6527 6.53478 8.88179e-016 -4.4182 9.239 -1.26912e-005 1.5385e-006 4.90409e-006 
-0.000323842 22.4586 -65.2215 -1.40341e-006 70.9928 1.72999e-006 5.42101e-020 8.7983 -4.7612 -3.49331 5.21401 0.21879 4.44089e-016 8.0291 0.4195 -7.0506 10.4047 0.762475 1.77636e-015 9.9351 -2.2114 -7.05063 10.4048 0.762481 0 22.3885 -0.4656 -10.9116 -45.962 -7.70427 -0.0001 12.643 3.4389 -17.7488 -5.75562 -2.98124 2.2603 21.606 7.4023 3.54756 -34.3358 -15.0176 13.5163 -1.1332 -5.0146 72.0981 -62.8479 72.7456 -0.0995 -28.05 -0.2431 -104.728 -68.4104 -157.935 0.0679 -23.3996 -0.1402 -31.5396 3.91075 53.1904 0.7932 -9.069 2.5189 -0 0 2.5842e-015 -0.8272 -3.3923 0.5977 3.18055e-015 -3.18055e-015 2.38542e-015 -0.5649 -2.3158 0.4082 8.82781e-032 -1.59028e-015 3.18055e-015 0.9159 -9.2044 0.2193 -0 0 2.5842e-015 0.0117 -4.1944 -0.0248 -0.0128209 0.00232856 9.16884e-005 0.0071 -2.3249 -0.0142 3.18055e-015 3.18055e-015 1.98785e-015 0.6113 -8.7231 -2.0637 -0 0 2.5842e-015 -0.1927 -3.8059 -0.2383 -0.0160103 0.00298793 0.000851125 -0.1091 -2.1688 -0.1362 -3.18055e-015 7.95139e-016 5.96354e-015 -0.6151 -8.0947 -3.5641 -0 0 2.5842e-015 -0.4882 -2.341 -0.6462 -0.0125909 0.00312133 0.00282329 -0.3575 -1.7167 -0.4742 -3.18055e-015 -7.95139e-016 1.39149e-015 -1.42 -1.8761 1.4223 -0 0 2.5842e-015 -1.1471 -3.4929 2.6334 3.18055e-015 -3.18055e-015 2.38542e-015 -0.823 -2.3 1.6571 8.82781e-032 -1.59028e-015 3.18055e-015 -2.2603 21.606 7.4023 -2.27834 -4.51603 29.0829 -13.5187 -1.1334 -5.0155 -83.0439 -66.6188 -87.5385 0.0994 -28.0499 -0.2431 -161.623 -66.8471 -110.054 -0.0679 -23.3996 -0.1402 14.003 23.3955 -30.6858 -0.7932 -9.0691 2.5189 3.33035e-007 -1.34473e-005 1.07699e-006 0.8272 -3.3923 0.5977 -9.46895e-007 1.55425e-006 4.77653e-006 0.565 -2.3158 0.4082 1.99334e-006 -7.87144e-007 -1.2808e-006 -0.916 -9.2044 0.2193 3.33035e-007 -1.34473e-005 1.07699e-006 -0.0117 -4.1944 -0.0248 0.0129556 0.00232371 -8.39221e-005 -0.0071 -2.3249 -0.0142 4.08121e-006 5.87564e-007 -9.57622e-007 -0.6113 -8.7231 -2.0637 3.33035e-007 -1.34473e-005 1.07699e-006 0.1927 -3.8059 -0.2383 0.0163492 0.00303536 -0.000864148 0.1091 -2.1688 -0.1362 2.30941e-006 -8.48488e-007 -2.87287e-006 0.6151 -8.0947 -3.564 3.33035e-007 -1.34473e-005 1.07699e-006 0.4882 -2.341 -0.6462 0.0145747 0.00369652 -0.00325463 0.3574 -1.7166 -0.4742 -7.95139e-016 0 -2.43511e-015 1.4199 -1.8761 1.4221 3.33035e-007 -1.34473e-005 1.07699e-006 1.1472 -3.4929 2.6336 -9.46895e-007 1.55425e-006 4.77653e-006 0.8229 -2.3 1.6571 1.99334e-006 -7.87144e-007 -1.2808e-006 -9.412 3.9771 -0.7758 -88.5079 -59.8254 -76.6478 -0.7531 -40.938 0 155.753 58.2178 -165.068 0 -40.1986 0 -6.9759 26.2305 -6.60185 -8.88179e-016 -4.4182 9.239 1.09879e-006 -5.97713e-006 4.10814e-006 9.4119 3.9773 -0.7758 88.5038 -59.8659 76.6292 0.7532 -40.9383 7.10543e-015 -155.694 58.2242 165.032 0 -40.1986 -7.10543e-015 7.02518 25.6502 6.53893 1.77636e-015 -4.4182 9.239 1.56206e-005 2.20869e-005 3.54374e-006 
-0.000327603 22.4104 -65.3231 -4.49593e-007 70.9928 1.10573e-006 0 8.7983 -4.7612 -3.49221 5.13867 0.211383 -4.44089e-016 8.0291 0.4195 -7.04616 10.2547 0.742611 0 9.9351 -2.2114 -7.04619 10.2547 0.742614 0 22.3885 -0.4656 -10.8719 -45.7621 -7.649 -0.0001 12.643 3.4389 -17.7598 -6.08765 -3.08812 2.2603 21.606 7.4023 3.55622 -34.1711 -15.2758 13.5163 -1.1332 -5.0146 71.9274 -62.6617 72.882 -0.0995 -28.05 -0.2431 -103.163 -68.6376 -156.501 0.0679 -23.3996 -0.1402 -31.2972 3.65197 52.9108 0.7932 -9.069 2.5189 6.64709e-006 8.59284e-007 -5.24569e-006 -0.8272 -3.3923 0.5977 -2.47166e-006 -1.86509e-006 8.95917e-006 -0.5649 -2.3158 0.4082 2.05786e-006 6.50265e-006 7.71105e-007 0.9159 -9.2044 0.2193 6.64709e-006 8.59284e-007 -5.24569e-006 0.0117 -4.1944 -0.0248 -0.0128422 0.00232671 0.000104135 0.0071 -2.3249 -0.0142 3.18055e-015 3.97569e-015 -5.56597e-015 0.6113 -8.7231 -2.0637 6.64709e-006 8.59284e-007 -5.24569e-006 -0.1927 -3.8059 -0.2383 -0.0160961 0.00301406 0.00087232 -0.1091 -2.1688 -0.1362 9.93129e-032 -1.59028e-015 3.57812e-015 -0.6151 -8.0947 -3.5641 6.64709e-006 8.59284e-007 -5.24569e-006 -0.4882 -2.341 -0.6462 -0.0126382 0.00312123 0.00284666 -0.3575 -1.7167 -0.4742 2.20695e-032 -7.95139e-016 1.59028e-015 -1.42 -1.8761 1.4223 6.64709e-006 8.59284e-007 -5.24569e-006 -1.1471 -3.4929 2.6334 -2.47166e-006 -1.86509e-006 8.95917e-006 -0.823 -2.3 1.6571 2.05786e-006 6.50265e-006 7.71105e-007 -2.2603 21.606 7.4023 -2.25254 -4.28683 29.1784 -13.5187 -1.1334 -5.0155 -83.0794 -66.6615 -87.5004 0.0994 -28.0499 -0.2431 -161.91 -66.6507 -110.317 -0.0679 -23.3996 -0.1402 14.2424 23.6935 -30.6738 -0.7932 -9.0691 2.5189 -1.19271e-015 1.59028e-015 1.39149e-015 0.8272 -3.3923 0.5977 -4.7915e-006 -2.33916e-005 7.74367e-006 0.565 -2.3158 0.4082 -3.97569e-016 4.77083e-015 3.8266e-015 -0.916 -9.2044 0.2193 -1.19271e-015 1.59028e-015 1.39149e-015 -0.0117 -4.1944 -0.0248 0.012946 0.00229859 -8.63813e-005 -0.0071 -2.3249 -0.0142 -1.19271e-015 -4.77083e-015 -8.10048e-015 -0.6113 -8.7231 -2.0637 -1.19271e-015 1.59028e-015 1.39149e-015 0.1927 -3.8059 -0.2383 0.0163139 0.00302568 -0.000868871 0.1091 -2.1688 -0.1362 7.95139e-016 -1.59028e-015 -4.87022e-015 0.6151 -8.0947 -3.564 -1.19271e-015 1.59028e-015 1.39149e-015 0.4882 -2.341 -0.6462 0.0145844 0.0036734 -0.00326718 0.3574 -1.7166 -0.4742 -3.97569e-016 1.59028e-015 1.83876e-015 1.4199 -1.8761 1.4221 -1.19271e-015 1.59028e-015 1.39149e-015 1.1472 -3.4929 2.6336 -4.7915e-006 -2.33916e-005 7.74367e-006 0.8229 -2.3 1.6571 -3.97569e-016 4.77083e-015 3.8266e-015 -9.412 3.9771 -0.7758 -88.8394 -59.8107 -76.9643 -0.7531 -40.938 0 155.935 58.0804 -165.229 3.55271e-015 -40.1986 -7.10543e-015 -6.97067 26.2251 -6.61108 8.88178e-016 -4.4182 9.239 -9.97984e-006 5.42323e-006 4.02776e-006 9.4119 3.9773 -0.7758 88.837 -59.8506 76.9476 0.7532 -40.9383 -7.10543e-015 -155.876 58.0858 165.195 -3.55271e-015 -40.1986 -7.10543e-015 7.01997 25.6446 6.54815 -8.88178e-016 -4.4182 9.239 1.29885e-006 -9.29447e-007 1.10576e-006 
